<svg xmlns="http://www.w3.org/2000/svg" xmlns:xlink="http://www.w3.org/1999/xlink" aria-hidden="true" focusable="false" width="1em" height="1em" style="-ms-transform: rotate(360deg); -webkit-transform: rotate(360deg); transform: rotate(360deg);" preserveAspectRatio="xMidYMid meet" viewBox="0 0 42 42"><path d="M2.68 15.726c-.1.039-.16.09-.18.149l.18-.149zm-.18.149V36.502c0 2.509.49 2.998 3 2.998h7c2.51 0 3-.461 3-3v-8h9v8.031c0 2.51.51 2.979 3 2.969c.04.031 7 0 7 0c2.529 0 3-.526 3-2.997V16.495c0-.08-.09-.15-.27-.23L20 1.5L2.68 15.726l-.18.149z" fill="##000000"/></svg>
